<?xml version="1.0" encoding="UTF-8" standalone="no"?>
<svg
   xmlns:dc="http://purl.org/dc/elements/1.1/"
   xmlns:cc="http://creativecommons.org/ns#"
   xmlns:rdf="http://www.w3.org/1999/02/22-rdf-syntax-ns#"
   xmlns:svg="http://www.w3.org/2000/svg"
   xmlns="http://www.w3.org/2000/svg"
   id="svg8"
   version="1.1"
   viewBox="0 0 256.00854 280.4877"
   height="280.4877mm"
   width="256.00854mm">
  <defs
     id="defs2" />
  <metadata
     id="metadata5">
    <rdf:RDF>
      <cc:Work
         rdf:about="">
        <dc:format>image/svg+xml</dc:format>
        <dc:type
           rdf:resource="http://purl.org/dc/dcmitype/StillImage" />
        <dc:title></dc:title>
      </cc:Work>
    </rdf:RDF>
  </metadata>
  <g
     transform="translate(-25.05422,-44.844017)"
     id="layer1">
    <g
       transform="translate(277.1585,35.01231)"
       id="g880">
      <path
         id="path892"
         d="m -175.89871,280.02074 c -0.43693,-0.53591 -6.24951,-14.06114 -9.18183,-21.3651 -4.14366,-10.32124 -6.43435,-16.98032 -8.07289,-23.4681 -0.24836,-0.98339 -0.57572,-1.33157 -2.85371,-3.03526 -11.59811,-8.67412 -21.1351,-24.96427 -22.91746,-39.14537 -1.04619,-8.32381 -1.82332,-25.87813 -1.83168,-41.37523 -0.007,-12.41665 0.17995,-16.58495 1.04477,-23.33054 0.42795,-3.33804 0.42663,-3.51867 -0.031,-4.23331 -0.2629,-0.41058 -3.08689,-4.5842 -6.27551,-9.27474 -8.62285,-12.68437 -11.41143,-17.502903 -13.40786,-23.168088 -1.59628,-4.529714 -2.6784,-11.992725 -2.6784,-18.472072 0,-7.312768 1.43582,-12.081266 4.14117,-13.753269 1.36678,-0.844716 1.51898,-1.344929 1.56224,-5.134572 0.0307,-2.68781 0.1666,-3.86941 0.62184,-5.40616 0.77801,-2.62632 2.05468,-5.316761 3.5595,-7.501189 l 1.23643,-1.79485 -0.26692,-1.644731 c -0.79092,-4.873404 0.34556,-9.595571 3.14777,-13.079216 1.2935,-1.608063 4.36322,-3.749419 6.54529,-4.565838 1.3733,-0.513818 1.6985,-0.54136 3.25534,-0.2757 2.14438,0.365918 5.87727,2.159598 8.26121,3.969567 0.97299,0.738731 3.02706,2.665259 4.56459,4.281171 2.49617,2.623428 3.00967,3.031121 4.79554,3.807472 6.71346,2.918454 12.32606,7.730993 24.93618,21.381587 1.15443,1.249678 1.80752,1.764435 2.11667,1.668328 0.24591,-0.07645 1.21415,-0.459634 2.15166,-0.851527 10.15255,-4.243935 26.05269,-0.394814 43.48018,10.52572 6.98206,4.375147 10.56183,7.128279 14.87988,11.443858 6.85096,6.847043 12.59591,14.838915 20.236313,28.151019 l 2.79266,4.86575 4.2262,1.76817 c 11.42634,4.7806 19.750347,10.11309 26.858167,17.20574 4.78936,4.77914 5.98376,6.32558 6.34117,8.2102 0.50484,2.66203 -0.42201,5.66669 -2.6675,8.64743 -0.57082,0.75774 -1.03787,1.4321 -1.03787,1.49858 0,0.0665 1.57758,1.30815 3.50573,2.75929 12.82334,9.65093 25.38911,24.98283 29.10106,35.50713 l 0.60657,1.71979 1.31884,-0.031 c 4.47393,-0.10529 14.384506,1.22095 15.395846,2.06029 0.277551,0.23036 0.342791,7.04475 0.342791,35.80832 0,30.58433 -0.0536,35.62707 -0.385251,36.2664 -0.62233,1.19955 -9.971346,9.87476 -10.657046,9.88898 l -0.59126,0.0123 -0.0702,-7.55674 -0.0702,-7.55673 -1.92599,2.52295 c -4.49556,5.88896 -7.40308,8.25388 -8.50914,6.92115 -0.1724,-0.20773 -0.37039,-1.30586 -0.43997,-2.44029 -0.21955,-3.57959 -2.52192,-9.37114 -7.76767,-19.5393 -2.67051,-5.17641 -6.20321,-11.70501 -6.48761,-11.98941 -0.0683,-0.0683 -1.23256,0.93447 -2.58718,2.22843 -1.35463,1.29395 -3.41141,2.98619 -4.57062,3.76051 -2.56794,1.71533 -7.70616,4.25784 -10.57432,5.23242 -1.16417,0.39558 -2.19965,0.78975 -2.30106,0.87593 -0.10142,0.0862 -0.78504,3.60187 -1.51915,7.81264 -1.73291,9.93976 -1.97254,10.14421 -3.586087,3.05969 -0.54688,-2.4011 -1.08247,-4.53058 -1.19021,-4.7322 -0.13295,-0.24877 -0.35079,0.039 -0.67792,0.89557 -1.53455,4.01814 -5.64565,8.44661 -10.44137,11.24746 -1.38682,0.80994 -2.18265,1.52167 -3.1905,2.8534 -1.90714,2.51998 -2.45045,2.71503 -2.77305,0.99551 l -0.16743,-0.89253 -1.89334,0.64673 c -2.75677,0.94167 -6.4758,1.84778 -10.095481,2.45968 -4.408452,0.74523 -8.783082,1.1498 -9.300692,0.86013 -0.23353,-0.13068 -0.32001,-0.30096 -0.19218,-0.37838 0.12783,-0.0774 2.09526,-0.62486 4.37208,-1.21652 2.27683,-0.59166 5.577342,-1.55633 7.334482,-2.14372 2.874901,-0.96105 8.029831,-3.07743 9.018351,-3.70253 0.33051,-0.20901 0.16894,-2.13562 -1.15896,-13.82034 -0.84865,-7.46761 -1.58493,-13.62498 -1.63616,-13.68305 -0.0935,-0.106 -0.88325,1.51588 -9.359351,19.22172 -3.923232,8.19531 -4.671552,9.5868 -5.141822,9.56127 -0.30658,-0.0166 -1.16473,-0.69943 -1.93738,-1.54149 l -1.38701,-1.5116 -1.98655,-16.14594 c -1.0926,-8.88027 -2.15669,-16.61027 -2.36465,-17.17778 -0.36889,-1.00666 -0.37867,-0.96081 -0.40081,1.87857 -0.0245,3.14535 -0.23617,3.88647 -0.97786,3.42423 -0.24704,-0.15396 -2.30426,-3.33257 -4.5716,-7.06358 -2.26733,-3.73101 -4.20538,-6.70066 -4.30677,-6.59923 -0.10139,0.10142 -2.04768,5.24457 -4.32508,11.4292 -4.93373,13.39828 -4.75855,12.96458 -5.23689,12.96458 -0.21635,0 -0.68054,-0.71364 -1.07562,-1.65364 -0.38226,-0.90951 -2.63896,-6.35032 -5.0149,-12.09071 -2.37594,-5.74038 -4.43975,-10.47701 -4.58624,-10.52584 -0.1465,-0.0488 -1.84298,1.70105 -3.76995,3.88862 -1.92697,2.18758 -3.61193,3.97741 -3.74434,3.97741 -0.13242,0 -0.24076,-0.15025 -0.24076,-0.33389 0,-0.63816 8.59484,-14.61507 8.98727,-14.61507 0.25551,0 1.78706,3.14665 4.47825,9.20083 2.24946,5.06045 4.19231,9.1667 4.31743,9.12499 0.25417,-0.0847 7.35085,-15.76982 7.35183,-16.24905 8e-4,-0.33028 -5.67911,-9.81847 -6.17771,-10.31998 -0.22936,-0.23069 -1.11558,0.7564 -3.61124,4.02223 -1.81901,2.38037 -3.47726,4.39755 -3.68499,4.48262 -0.57124,0.23393 -0.9214,-0.27412 -2.27739,-3.30435 -1.23606,-2.76219 -1.24219,-2.79017 -1.06955,-4.87953 l 0.17363,-2.10141 -2.15908,2.96131 c -1.1875,1.62871 -2.3243,2.9613 -2.52622,2.9613 -0.20193,0 -2.64012,-2.73844 -5.41821,-6.08542 -2.7781,-3.34698 -5.16691,-6.08541 -5.30847,-6.08541 -0.14156,0 -1.28125,0.71437 -2.53264,1.5875 -2.26896,1.58311 -2.97978,1.88321 -2.9767,1.25677 0.002,-0.41792 5.1969,-9.9862 5.70388,-10.50585 0.28994,-0.29719 0.44799,-0.31368 0.68971,-0.0719 0.17248,0.17247 2.05724,2.77971 4.18837,5.79387 2.13113,3.01416 4.00344,5.52318 4.16068,5.57559 0.15725,0.0524 2.06513,-1.85663 4.23974,-4.24233 3.46118,-3.79717 3.97645,-4.47909 4.13535,-5.47282 0.0998,-0.62435 0.13824,-1.17846 0.0853,-1.23136 -0.0529,-0.0529 -1.57282,0.9155 -3.3776,2.15199 -1.80478,1.23649 -3.54293,2.24817 -3.86257,2.24817 -0.47902,0 -0.66008,-0.26736 -1.03032,-1.52135 -0.94223,-3.19142 -0.96722,-3.0714 1.98987,-9.55786 1.48068,-3.2479 2.64782,-5.94958 2.59366,-6.00374 -0.0542,-0.0542 -1.44768,0.32408 -3.09671,0.84054 -2.47893,0.77637 -3.05491,0.87805 -3.32539,0.58707 -0.17993,-0.19358 -0.47283,-1.30445 -0.65088,-2.46862 -0.17806,-1.16416 -0.38582,-2.43844 -0.46169,-2.83173 -0.11843,-0.61385 0.16599,-1.03244 2.00928,-2.95718 1.18098,-1.23317 2.14723,-2.29897 2.14723,-2.36847 0,-0.0695 -1.01578,0.17997 -2.2573,0.55436 -1.58473,0.47789 -2.34056,0.59745 -2.53672,0.40129 -0.15367,-0.15367 -0.74479,-2.28709 -1.31358,-4.74092 -0.5688,-2.45383 -1.09042,-4.61034 -1.15915,-4.79224 -0.18432,-0.4878 0.12543,-1.12448 0.54708,-1.12448 0.2021,0 3.82617,1.42875 8.05349,3.175 4.22732,1.74625 7.7468,3.175 7.82107,3.175 0.0743,0 -2.46122,-5.11251 -5.63441,-11.36114 -5.37617,-10.58672 -5.73963,-11.39138 -5.33213,-11.80494 0.40858,-0.41465 1.16067,-0.13498 11.44789,4.25683 6.05581,2.58535 11.0593,4.65191 11.11886,4.59235 0.0596,-0.0596 -2.92578,-4.01864 -6.63407,-8.79797 -4.81374,-6.20405 -6.71919,-8.85214 -6.66138,-9.25769 0.0734,-0.51494 0.55708,-0.66639 5.17421,-1.62018 2.80127,-0.57869 5.09322,-1.11675 5.09322,-1.19571 0,-0.079 -3.00632,-1.39954 -6.68072,-2.9346 -5.60958,-2.34354 -6.69429,-2.8836 -6.76528,-3.36834 -0.0465,-0.31751 -0.0465,-0.57769 0,-0.57817 0.0465,-5.3e-4 3.51353,-0.47674 7.7045,-1.05834 4.19097,-0.58159 7.82238,-1.06107 8.06979,-1.06549 0.38234,-0.007 0.39029,-0.0417 0.053,-0.23259 -0.21828,-0.1235 -3.84969,-1.43703 -8.06979,-2.91896 -4.2201,-1.48192 -7.82082,-2.8391 -8.00158,-3.01594 -0.18077,-0.17684 -0.70478,-2.10414 -1.16446,-4.28289 -0.76378,-3.62003 -0.80802,-4.08676 -0.5134,-5.41658 0.96041,-4.334993 1.17748,-6.841038 1.19171,-13.758331 0.008,-3.856302 -0.0713,-7.321425 -0.17599,-7.700274 l -0.19043,-0.688947 -1.92292,0.360159 c -1.05761,0.198088 -3.89559,0.435518 -6.30661,0.527622 -5.94827,0.227232 -10.17111,-0.467424 -13.65925,-2.246937 -1.28396,-0.655032 -1.99628,-1.312569 -1.78763,-1.650167 0.0827,-0.133789 1.3972,-0.243252 2.92115,-0.243252 2.156,0 2.80297,-0.08379 2.91571,-0.377595 0.21802,-0.56814 -0.77557,-2.603847 -2.40782,-4.933238 -1.43545,-2.048542 -1.7672,-2.89125 -1.13819,-2.89125 0.17581,0 2.73024,1.188707 5.67651,2.641571 2.94627,1.452866 6.16594,2.87229 7.15482,3.154277 0.98888,0.281985 2.81,0.93657 4.04693,1.454626 1.23692,0.51806 2.63591,0.944105 3.10885,0.946767 0.73144,0.0041 0.8599,-0.08955 0.8599,-0.627018 0,-0.980649 -1.25294,-5.068466 -2.01361,-6.569588 -1.38859,-2.740241 -4.12726,-4.741248 -7.91624,-5.783989 -1.73753,-0.478177 -2.76069,-0.575707 -5.81286,-0.554104 -3.68255,0.02606 -3.72599,0.01932 -7.44454,-1.15462 -2.05721,-0.64946 -3.87474,-1.180839 -4.03897,-1.180839 -0.16422,0 -0.94266,0.427639 -1.72986,0.95031 -0.9621,0.638796 -1.55463,0.877305 -1.80761,0.727604 -0.20698,-0.122489 -2.43804,-2.484893 -4.9579,-5.249788 -11.47013,-12.585503 -18.15996,-18.187406 -24.25423,-20.309922 -6.44563,-2.244884 -14.49957,-0.617846 -20.27683,4.096272 -0.62709,0.511694 -0.78315,0.901667 -0.98353,2.457797 -0.13099,1.017283 -0.24207,2.937681 -0.24683,4.267553 l -0.009,2.417951 0.98219,0.184258 c 1.73788,0.32603 2.50749,1.479518 4.02504,6.032775 0.74336,2.230374 1.79607,4.807214 2.33936,5.726313 1.98258,3.354028 5.44797,5.83623 10.20848,7.312171 2.61564,0.810953 2.93394,1.068773 4.16049,3.370016 0.47382,0.888971 1.43085,2.322885 2.12673,3.186472 2.78731,3.459011 5.13486,10.17638 5.32877,15.24791 0.0535,1.399257 -0.0128,1.726499 -0.36415,1.798892 -0.28299,0.0583 -0.63069,-0.299617 -1.01901,-1.048944 -1.84706,-3.56417 -12.11386,-13.779909 -17.20457,-17.118993 -3.92855,-2.576803 -9.37866,-5.336719 -12.63865,-6.400167 -3.22033,-1.050512 -7.88676,-1.409695 -8.51289,-0.655251 -0.52262,0.629721 -0.69863,7.698149 -0.29101,11.686748 0.80371,7.86448 1.79448,11.358247 4.26306,15.03295 4.51814,6.72564 10.12963,11.73876 16.78261,14.99301 3.88947,1.9025 6.92111,2.73457 12.43855,3.41393 4.15768,0.51193 7.73171,1.2632 8.92113,1.87525 1.15702,0.59537 2.05595,1.64553 2.05595,2.40182 0,1.68159 -3.37545,3.75632 -8.52215,5.23816 -3.00846,0.86619 -8.43092,1.98973 -10.98642,2.2764 -0.90706,0.10175 -1.76105,0.31978 -1.89776,0.48451 -0.33781,0.40703 -1.01052,4.19141 -1.34432,7.56259 -1.03693,10.47243 -0.80333,33.60029 0.53457,52.92466 0.60009,8.6677 1.18726,12.18027 2.31398,13.84277 0.86628,1.2782 4.2572,4.47598 7.04301,6.64184 6.50164,5.05476 14.41635,8.63289 21.98721,9.9401 4.57684,0.79025 6.91351,1.71532 9.57352,3.79012 5.51672,4.303 9.40065,13.88798 10.29769,25.41323 0.20766,2.668 0.17457,2.61093 4.31591,7.44382 5.69071,6.64098 8.72094,9.93072 14.15685,15.36928 l 5.84145,5.84429 3.30729,0.84167 c 7.66879,1.95162 16.37253,3.71247 23.68021,4.79073 2.18281,0.32208 4.20687,0.68985 4.49791,0.81724 0.29105,0.12743 0.88636,0.27755 1.32292,0.33364 0.43656,0.0561 -15.05675,0.11983 -34.42958,0.14163 -27.89711,0.0314 -35.27942,-0.0291 -35.49298,-0.29109 z m 118.34453,-47.3302 c -0.43491,-0.11917 -1.46539,-0.29299 -2.28994,-0.38628 l -1.49918,-0.16961 -0.24245,1.42039 c -0.13334,0.78121 -0.19827,1.50791 -0.14429,1.61487 0.054,0.10696 1.19356,-0.35839 2.53238,-1.03412 2.36085,-1.19156 2.41039,-1.23512 1.64348,-1.44525 z m 11.22555,-6.69138 c 0.28217,-0.33999 0.13324,-0.75396 -0.9138,-2.53993 -0.68801,-1.17356 -1.2821,-2.09859 -1.3202,-2.05564 -0.0834,0.094 0.62525,4.69607 0.79801,5.18273 0.13894,0.39137 0.87298,0.0912 1.43599,-0.58716 z m -51.712478,-82.75355 c 8.136811,-1.64908 13.799001,-4.3697 15.643051,-7.51631 1.48791,-2.5389 0.7438,-5.39215 -2.36555,-9.07058 -4.28207,-5.06581 -11.313431,-8.22281 -19.853013,-8.91377 l -2.34465,-0.18972 0.1597,0.76639 c 0.19583,0.93981 3.86815,25.20788 3.86815,25.56223 0,0.2848 0.94844,0.16106 4.892312,-0.63824 z M -230.19802,51.190752 c 0,-0.547513 -0.10319,-1.059246 -0.2293,-1.137189 -0.24548,-0.151712 -0.83599,2.393669 -0.81849,3.528049 0.01,0.619292 0.0592,0.585864 0.52917,-0.355955 0.28524,-0.571687 0.51862,-1.487394 0.51862,-2.034905 z m 34.67644,88.920868 c -3.84668,-0.52561 -8.24992,-2.41989 -11.74684,-5.05354 -1.71667,-1.29288 -2.26829,-1.92694 -1.95174,-2.24349 0.0776,-0.0776 1.55638,0.33203 3.2861,0.91034 9.80184,3.27721 17.78076,3.20491 22.3152,-0.20219 1.31444,-0.98765 1.39794,-1.01067 4.302,-1.18542 10.35018,-0.62284 16.52498,-2.65728 21.08495,-6.94696 1.56347,-1.47078 2.32097,-2.4417 3.15358,-4.04209 0.60271,-1.15849 1.22954,-2.18898 1.39295,-2.28997 0.46201,-0.28554 0.0422,1.82992 -0.76361,3.84805 -2.04963,5.13317 -5.89234,9.40335 -10.58018,11.75714 -3.40584,1.7101 -8.92856,2.64887 -13.92258,2.36662 -2.42712,-0.13718 -2.43372,-0.13583 -4.54732,0.93033 -3.64437,1.83833 -8.26343,2.66482 -12.02251,2.15118 z"
         style="fill:#42b983;fill-opacity:1;stroke-width:0.26458332" />
    </g>
  </g>
</svg>
